<?xml version="1.0" standalone="no"?>
<!DOCTYPE svg PUBLIC "-//W3C//DTD SVG 20010904//EN"
 "http://www.w3.org/TR/2001/REC-SVG-20010904/DTD/svg10.dtd">
<svg version="1.0" xmlns="http://www.w3.org/2000/svg"
 width="520.000000pt" height="352.000000pt" viewBox="0 0 520.000000 352.000000"
 preserveAspectRatio="xMidYMid meet">

<g transform="translate(0.000000,352.000000) scale(0.100000,-0.100000)"
fill="#000000" stroke="none">
<path d="M2431 3331 c-7 -11 -22 -53 -36 -92 -13 -40 -28 -76 -34 -82 -5 -5
-53 -12 -107 -16 -129 -8 -132 -19 -31 -95 41 -30 77 -59 81 -64 3 -5 -10 -50
-29 -100 -19 -51 -35 -97 -35 -102 0 -29 36 -16 110 39 45 34 85 61 88 61 4 0
48 -29 97 -65 50 -35 93 -65 98 -65 14 0 6 48 -23 134 -16 48 -27 92 -24 99 2
7 36 37 75 67 39 30 75 61 81 68 20 23 -11 32 -118 32 -116 0 -99 -14 -145
120 -27 79 -34 88 -48 61z"/>
<path d="M1850 2982 c-217 -94 -476 -233 -468 -251 2 -3 10 -23 18 -43 8 -21
17 -38 21 -38 3 0 39 22 80 49 105 70 278 163 426 231 120 55 128 60 128 87 0
45 -35 39 -205 -35z"/>
<path d="M1970 2854 c-180 -61 -423 -187 -507 -261 -30 -27 -32 -33 -36 -115
l-5 -87 62 52 c134 114 300 219 516 328 123 61 141 73 138 92 -5 34 -50 32
-168 -9z"/>
<path d="M1034 2838 c-4 -7 -6 -80 -5 -163 l3 -152 -37 -99 c-63 -168 -160
-352 -232 -442 l-35 -43 1 -372 c2 -419 2 -419 76 -469 87 -58 107 -60 514
-66 421 -5 463 -1 506 49 31 38 34 105 6 140 l-19 23 51 26 c63 31 97 78 97
132 0 45 -13 76 -42 99 -20 15 -19 16 16 37 95 56 103 192 17 265 l-33 27 30
25 c16 13 35 38 42 55 17 41 8 121 -18 157 -42 60 -61 63 -370 63 -243 0 -281
2 -293 16 -11 13 -9 38 14 152 39 199 42 246 23 322 -28 109 -96 190 -180 215
-60 18 -122 19 -132 3z"/>
<path d="M2422 2138 l3 -473 85 0 85 0 5 325 c3 179 8 320 12 314 4 -6 21 -49
38 -95 37 -101 203 -533 206 -537 1 -2 29 -6 61 -9 40 -3 63 -1 75 9 10 7 55
110 101 228 46 118 101 260 123 315 l39 100 3 -322 2 -323 75 -1 c41 -1 82 -2
91 -3 14 -1 17 37 21 364 3 201 2 414 -2 473 l-7 108 -120 -3 -121 -3 -130
-328 c-71 -180 -132 -325 -134 -323 -3 3 -65 150 -138 328 l-132 323 -122 3
-121 3 2 -473z"/>
<path d="M3748 2366 c-86 -33 -131 -78 -176 -173 -24 -53 -27 -69 -27 -173 0
-99 3 -122 23 -166 48 -106 146 -168 267 -168 85 0 135 16 182 57 l36 32 -5
-69 c-7 -78 -26 -111 -79 -138 -68 -35 -204 -16 -230 33 -8 16 -22 19 -94 19
-82 0 -85 -1 -85 -23 0 -35 54 -113 98 -142 23 -15 73 -33 120 -43 148 -30
311 12 386 100 64 74 66 90 66 495 l0 363 -90 0 -90 0 0 -42 0 -42 -27 26
c-16 14 -44 34 -63 43 -46 24 -163 29 -212 11z m238 -167 c46 -28 65 -75 66
-168 1 -104 -19 -147 -85 -180 -54 -27 -110 -24 -164 9 -50 30 -68 73 -68 165
0 120 34 176 118 195 44 9 96 1 133 -21z"/>
<path d="M809 2256 c-37 -39 -95 -105 -129 -146 l-62 -75 28 -12 c43 -18 50
-16 83 25 30 39 156 271 150 276 -2 1 -34 -29 -70 -68z"/>
<path d="M378 1954 c-15 -8 -30 -25 -33 -37 -3 -12 -4 -194 -3 -403 3 -359 4
-383 22 -403 17 -19 30 -21 133 -21 108 0 115 1 138 25 l25 24 0 378 c0 208
-3 388 -6 401 -11 38 -53 52 -156 52 -63 -1 -102 -6 -120 -16z"/>
<path d="M2390 1385 l0 -75 125 0 125 0 0 -340 0 -340 90 0 90 0 0 340 0 340
120 0 120 0 0 75 0 75 -335 0 -335 0 0 -75z"/>
<path d="M4280 1050 l0 -410 80 0 80 0 0 201 0 201 35 35 c34 34 38 35 91 31
39 -3 62 -11 77 -27 21 -20 22 -32 27 -234 l5 -212 78 -3 78 -3 -3 238 c-3
210 -5 242 -22 276 -24 49 -77 84 -147 99 -68 14 -115 5 -170 -32 l-44 -29 -3
139 -3 140 -79 0 -80 0 0 -410z"/>
<path d="M3173 1234 c-61 -22 -136 -94 -164 -156 -20 -44 -24 -69 -24 -148 1
-110 18 -155 88 -228 106 -110 308 -110 414 0 41 43 63 77 63 97 0 7 -26 11
-66 11 -59 0 -70 -3 -101 -30 -29 -26 -41 -30 -94 -30 -77 0 -112 18 -133 70
-29 73 -39 69 192 72 l207 3 3 40 c5 62 -18 153 -52 203 -47 68 -119 105 -215
109 -51 2 -90 -3 -118 -13z m181 -132 c20 -18 46 -72 46 -97 0 -13 -20 -15
-129 -15 l-129 0 8 36 c16 68 77 108 150 98 19 -3 43 -13 54 -22z"/>
<path d="M3818 1234 c-69 -24 -122 -74 -160 -151 -29 -59 -32 -75 -32 -152 0
-71 4 -96 25 -141 50 -108 128 -161 249 -168 60 -3 87 0 135 18 73 28 136 88
158 154 l16 46 -78 0 c-77 0 -79 -1 -90 -28 -26 -62 -127 -83 -192 -39 -92 62
-85 276 11 324 34 17 105 16 139 -1 15 -8 32 -26 39 -40 11 -25 15 -26 91 -26
l80 0 -15 43 c-35 103 -130 169 -254 174 -51 2 -90 -2 -122 -13z"/>
</g>
</svg>
